<svg width="25" height="26" viewBox="0 0 25 26" fill="none" xmlns="http://www.w3.org/2000/svg">
<path fill-rule="evenodd" clip-rule="evenodd" d="M16.2472 16.0346C17.4111 14.7051 18.1165 12.9641 18.1165 11.0583C18.1165 6.88395 14.7326 3.5 10.5583 3.5C6.38395 3.5 3 6.88395 3 11.0583C3 15.2326 6.38395 18.6165 10.5583 18.6165C12.4641 18.6165 14.2051 17.9111 15.5346 16.7472L21.2874 22.5L22 21.7874L16.2472 16.0346ZM10.5583 17.6087C6.94052 17.6087 4.00777 14.676 4.00777 11.0583C4.00777 7.44052 6.94052 4.50777 10.5583 4.50777C14.176 4.50777 17.1087 7.44052 17.1087 11.0583C17.1087 14.676 14.176 17.6087 10.5583 17.6087Z" fill="#979797"/>
<mask id="mask0" mask-type="alpha" maskUnits="userSpaceOnUse" x="3" y="3" width="19" height="20">
<path fill-rule="evenodd" clip-rule="evenodd" d="M16.2472 16.0346C17.4111 14.7051 18.1165 12.9641 18.1165 11.0583C18.1165 6.88395 14.7326 3.5 10.5583 3.5C6.38395 3.5 3 6.88395 3 11.0583C3 15.2326 6.38395 18.6165 10.5583 18.6165C12.4641 18.6165 14.2051 17.9111 15.5346 16.7472L21.2874 22.5L22 21.7874L16.2472 16.0346ZM10.5583 17.6087C6.94052 17.6087 4.00777 14.676 4.00777 11.0583C4.00777 7.44052 6.94052 4.50777 10.5583 4.50777C14.176 4.50777 17.1087 7.44052 17.1087 11.0583C17.1087 14.676 14.176 17.6087 10.5583 17.6087Z" fill="white"/>
</mask>
<g mask="url(#mask0)">
<rect y="0.5" width="25" height="25" fill="white"/>
</g>
</svg>
